<?xml version="1.0" encoding="UTF-8"?>
<svg id="AFLT-LOGO" xmlns="http://www.w3.org/2000/svg" viewBox="0 0 587.25 193.68">
  <defs>
    <style>
      .cls-1 {
        fill: #11114e;
      }

      .cls-2 {
        fill: #6b9eda;
      }
    </style>
  </defs>
  <path class="cls-2" d="m77.31,25.51c-.13-.64,20.97-5.85,43.11-9.99,9.4-1.76,16.23-2.8,26.73-4.41,15.32-2.35,29.46-4.49,46.98-6.12,6.07-.56,12.14-1.03,27.72-1.89C260.53.96,279.88-.11,301.83,0c16.97.09,28.75.78,52.32,2.16,34.13,2,52.3,3.06,77.04,6.72,7.81,1.15,33.03,5.04,63.84,13.44,4.24,1.16,24.61,6.8,46.8,17.28,3.07,1.45,8.88,4.27,15.84,8.88,7.71,5.11,15.77,10.55,22.32,20.4,2.58,3.87,5.84,8.89,6.96,16.32,0,0,1.03,6.85-.72,13.92-3.64,14.69-19.29,24.72-27.84,29.76-24.6,14.5-48.32,21.89-73.2,28.32-23.14,5.98-41.4,9.6-50.16,11.28-23.49,4.5-61.35,10.79-109.92,14.16-29.92,2.08-53.98,2.36-54,1.92-.02-.41,21.25-1.39,51.6-4.8,15.85-1.78,27.7-3.17,41.28-5.52,3.72-.64,11.4-2.01,21.12-4.08,8.03-1.71,16.29-3.46,27.12-6.48,6.69-1.86,16.36-4.59,28.56-9.36,3.36-1.32,7.53-2.96,12.96-5.52,5.06-2.39,11.85-5.63,19.92-11.04,4.74-3.18,9.87-6.66,15.6-12.48,4.24-4.3,7.58-7.7,10.32-13.44,3.49-7.32,3.81-13.87,3.84-16.32.02-1.45.01-7.66-2.88-15.12-1.42-3.67-3.73-8.14-9.12-14.4-8.76-10.18-17.98-16.17-22.08-18.72-8.62-5.36-21.37-12.2-43.2-19.44-20.08-6.66-35.88-9.7-46.8-11.76-20.46-3.86-37.18-5.43-55.92-7.2-5.6-.53-15.86-1.49-27.36-2.16-35.57-2.06-63.47-.11-91.2,1.92-29.86,2.19-53.18,5.19-64.32,6.72-37.86,5.19-63.1,10.84-63.24,10.14Z"/>
  <g>
    <path class="cls-2" d="m27.59,193.11h-3.84l-2.93-16.07-7.83,16.64h-.84l-7.79-17.18-2.89,16.61H0l4.03-23.37h.84l8.85,18.96,8.89-18.96h.87l4.1,23.37Z"/>
    <path class="cls-2" d="m59.43,193.11l-2.89-6.35h-10.87l-2.93,6.35h-1.67l10.98-23.37h.84l10.94,23.37h-4.41Zm-13.07-7.83h9.5l-4.71-10.34-4.79,10.34Z"/>
    <path class="cls-2" d="m92.45,185.13l4.75,7.98h-4.18l-5.05-8.7c-.48-.89-1.29-1.33-2.43-1.33h-2.62v10.03h-3.95v-22.8h8.93c2.53,0,4.5.58,5.89,1.75,1.39,1.17,2.09,2.71,2.09,4.64,0,1.5-.49,2.77-1.48,3.84-.99,1.06-2.37,1.8-4.14,2.2.35.13.67.33.95.61.28.28.49.53.63.74.14.22.35.56.63,1.04Zm-9.54-3.53h3.8c1.72,0,3.02-.43,3.9-1.29s1.31-2.06,1.31-3.61-.42-2.72-1.27-3.59c-.85-.87-2.08-1.31-3.71-1.31h-4.03v9.8Z"/>
    <path class="cls-2" d="m113.24,170.31h3.95v22.8h-3.95v-22.8Z"/>
    <path class="cls-2" d="m152.8,170.31v1.48h-8.17v21.32h-3.91v-21.32h-8.13v-1.48h20.22Z"/>
    <path class="cls-2" d="m168.19,170.31h3.95v22.8h-3.95v-22.8Z"/>
    <path class="cls-2" d="m216.03,193.11h-3.84l-2.93-16.07-7.83,16.64h-.84l-7.79-17.18-2.89,16.61h-1.48l4.03-23.37h.84l8.85,18.96,8.89-18.96h.87l4.1,23.37Z"/>
    <path class="cls-2" d="m236.28,191.63h11.13v1.48h-15.09v-22.8h14.71v1.48h-10.75v9.2h8.47v1.48h-8.47v9.16Z"/>
  </g>
  <g>
    <path class="cls-1" d="m63.09,56.87l56.21,84.51h-25.61l-30.43-44.81-30.88,44.75-25.55.06L63.09,56.87Z"/>
    <path class="cls-1" d="m167.81,141.21l-23.58.06V57.71h88.38v17.52h-64.91v14.94h54.47v18.42h-54.47l.11,32.62Z"/>
    <path class="cls-1" d="m263.76,57.71h23.42v65.98l43.97-.17v17.86h-67.38V57.71Z"/>
    <path class="cls-1" d="m358.77,57.71l84.12-.11.11,18.19h-31.89l-.06,65.47-20.78-.06v-65.75h-31.73l.22-17.74Z"/>
  </g>
</svg>